<svg xmlns="http://www.w3.org/2000/svg" width="138.004" height="40.121" viewBox="0 0 138.004 40.121"><defs><style>.a{fill:#ba9e72;}</style></defs><g transform="translate(-31 -12.203)"><g transform="translate(78.815 21.723)"><path class="a" d="M329.5,581.161h1.361V583.4a2.523,2.523,0,0,1-.52.146,3.98,3.98,0,0,1-.713.056,2.608,2.608,0,0,1-1.029-.2,2.241,2.241,0,0,1-.8-.571,2.558,2.558,0,0,1-.52-.928,4.02,4.02,0,0,1-.182-1.259,3.954,3.954,0,0,1,.214-1.387,2.538,2.538,0,0,1,.568-.923,2.083,2.083,0,0,1,.82-.509,3.054,3.054,0,0,1,.981-.157,3.245,3.245,0,0,1,.809.1,3.776,3.776,0,0,1,.766.291l.193-.638a2.978,2.978,0,0,0-.858-.313,5.317,5.317,0,0,0-1.029-.09,3.558,3.558,0,0,0-1.308.235,2.9,2.9,0,0,0-1.04.688,3.132,3.132,0,0,0-.686,1.136,4.6,4.6,0,0,0-.246,1.566,4.247,4.247,0,0,0,.263,1.555,3.3,3.3,0,0,0,.713,1.13,2.972,2.972,0,0,0,1.05.694,3.5,3.5,0,0,0,1.286.235,5.25,5.25,0,0,0,1.141-.106,5.146,5.146,0,0,0,.863-.274v-3.345h-2.1Z" transform="translate(-326.282 -553.665)"/><path class="a" d="M365.386,577.922a2.558,2.558,0,0,0-.97-.677,3.231,3.231,0,0,0-1.206-.224,3.127,3.127,0,0,0-1.216.235,2.746,2.746,0,0,0-.981.693,3.326,3.326,0,0,0-.659,1.13,4.6,4.6,0,0,0-.241,1.555,4.813,4.813,0,0,0,.236,1.583,3.275,3.275,0,0,0,.643,1.13,2.609,2.609,0,0,0,.97.682,3.263,3.263,0,0,0,2.417-.006,2.73,2.73,0,0,0,.986-.694,3.309,3.309,0,0,0,.659-1.135,4.642,4.642,0,0,0,.241-1.56,4.814,4.814,0,0,0-.236-1.583A3.282,3.282,0,0,0,365.386,577.922Zm-.123,4.033a2.728,2.728,0,0,1-.482.929,1.937,1.937,0,0,1-.707.548,2.1,2.1,0,0,1-.863.179,2.173,2.173,0,0,1-.873-.179,1.956,1.956,0,0,1-.723-.548,2.734,2.734,0,0,1-.493-.929,4.267,4.267,0,0,1-.182-1.32,4.359,4.359,0,0,1,.177-1.309,2.732,2.732,0,0,1,.482-.929,1.938,1.938,0,0,1,.707-.548,2.1,2.1,0,0,1,.863-.179,2.232,2.232,0,0,1,.874.173,1.955,1.955,0,0,1,.723.531,2.619,2.619,0,0,1,.493.923,5.006,5.006,0,0,1,.005,2.657Z" transform="translate(-352.879 -553.665)"/><path class="a" d="M402.288,581.2a1.927,1.927,0,0,0,.772-.99,2.163,2.163,0,0,0,.118-.733,2.343,2.343,0,0,0-.139-.822,1.771,1.771,0,0,0-.407-.643,1.852,1.852,0,0,0-.67-.42,2.631,2.631,0,0,0-.927-.151h-2.079v7.048h.718v-2.875h1.361l1.672,2.875h.879l-1.833-3.02A2.6,2.6,0,0,0,402.288,581.2Zm-1.586-.235h-1.029V578.09h1.115a1.788,1.788,0,0,1,1.184.341,1.341,1.341,0,0,1,.4,1.08,1.528,1.528,0,0,1-.129.654,1.242,1.242,0,0,1-.354.453,1.465,1.465,0,0,1-.531.263A2.465,2.465,0,0,1,400.7,580.965Z" transform="translate(-383.415 -553.994)"/><path class="a" d="M430.638,581.161H432V583.4a2.523,2.523,0,0,1-.52.146,3.979,3.979,0,0,1-.713.056,2.607,2.607,0,0,1-1.029-.2,2.241,2.241,0,0,1-.8-.571,2.558,2.558,0,0,1-.52-.928,4.019,4.019,0,0,1-.182-1.259,3.949,3.949,0,0,1,.215-1.387,2.535,2.535,0,0,1,.568-.923,2.084,2.084,0,0,1,.82-.509,3.054,3.054,0,0,1,.981-.157,3.244,3.244,0,0,1,.809.1,3.776,3.776,0,0,1,.766.291l.193-.638a2.978,2.978,0,0,0-.858-.313,5.317,5.317,0,0,0-1.029-.09,3.558,3.558,0,0,0-1.308.235,2.9,2.9,0,0,0-1.04.688,3.133,3.133,0,0,0-.686,1.136,4.6,4.6,0,0,0-.246,1.566,4.247,4.247,0,0,0,.263,1.555,3.307,3.307,0,0,0,.713,1.13,2.972,2.972,0,0,0,1.05.694,3.5,3.5,0,0,0,1.286.235,5.25,5.25,0,0,0,1.141-.106,5.147,5.147,0,0,0,.863-.274v-3.345h-2.1Z" transform="translate(-405.795 -553.665)"/><path class="a" d="M463.73,581.178h2.915v-.66H463.73V578.1h3.194v-.66h-3.965v7.048h4v-.66H463.73Z" transform="translate(-433.731 -553.995)"/><path class="a" d="M494.643,577.922a2.559,2.559,0,0,0-.97-.677,3.23,3.23,0,0,0-1.206-.224,3.127,3.127,0,0,0-1.216.235,2.746,2.746,0,0,0-.981.693,3.329,3.329,0,0,0-.659,1.13,4.6,4.6,0,0,0-.241,1.555,4.813,4.813,0,0,0,.236,1.583,3.278,3.278,0,0,0,.643,1.13,2.608,2.608,0,0,0,.97.682,3.263,3.263,0,0,0,2.417-.006,2.73,2.73,0,0,0,.986-.694,3.309,3.309,0,0,0,.659-1.135,4.637,4.637,0,0,0,.241-1.56,4.818,4.818,0,0,0-.236-1.583A3.284,3.284,0,0,0,494.643,577.922Zm-.123,4.033a2.731,2.731,0,0,1-.482.929,1.936,1.936,0,0,1-.707.548,2.1,2.1,0,0,1-.863.179,2.172,2.172,0,0,1-.873-.179,1.956,1.956,0,0,1-.723-.548,2.738,2.738,0,0,1-.493-.929,4.273,4.273,0,0,1-.182-1.32,4.357,4.357,0,0,1,.177-1.309,2.733,2.733,0,0,1,.482-.929,1.94,1.94,0,0,1,.707-.548,2.1,2.1,0,0,1,.863-.179,2.232,2.232,0,0,1,.874.173,1.956,1.956,0,0,1,.723.531,2.615,2.615,0,0,1,.493.923,5,5,0,0,1,.006,2.657Z" transform="translate(-454.495 -553.665)"/><path class="a" d="M532.292,581.793a3.475,3.475,0,0,1-.1.873,1.913,1.913,0,0,1-.311.671,1.419,1.419,0,0,1-.542.436,1.843,1.843,0,0,1-.793.156,1.7,1.7,0,0,1-1.377-.52,2.755,2.755,0,0,1-.434-1.751v-4.217h-.772V581.7a3.017,3.017,0,0,0,.686,2.2,2.559,2.559,0,0,0,1.9.688,2.454,2.454,0,0,0,1.859-.688,3.005,3.005,0,0,0,.659-2.142v-4.318h-.772Z" transform="translate(-484.835 -553.994)"/><path class="a" d="M564.336,580.367l-.718-.246a2.517,2.517,0,0,1-.932-.5,1.021,1.021,0,0,1-.3-.777,1.033,1.033,0,0,1,.4-.867,1.668,1.668,0,0,1,1.05-.308,3.194,3.194,0,0,1,.755.089,4.219,4.219,0,0,1,.831.313l.193-.66a3.729,3.729,0,0,0-.884-.3,4.7,4.7,0,0,0-.927-.09,2.346,2.346,0,0,0-1.64.52,1.81,1.81,0,0,0-.568,1.4,1.576,1.576,0,0,0,.418,1.147,2.654,2.654,0,0,0,1.093.655l.7.235a3.589,3.589,0,0,1,.654.285,1.7,1.7,0,0,1,.407.319.959.959,0,0,1,.209.364,1.452,1.452,0,0,1,.059.419,1.054,1.054,0,0,1-.434.929,1.862,1.862,0,0,1-1.088.3,3.834,3.834,0,0,1-.916-.106,3.931,3.931,0,0,1-.884-.341l-.2.66a4.3,4.3,0,0,0,1.024.347,5.254,5.254,0,0,0,1.023.1,2.888,2.888,0,0,0,.922-.14,2.183,2.183,0,0,0,.718-.392,1.739,1.739,0,0,0,.466-.615,1.963,1.963,0,0,0,.166-.822,1.82,1.82,0,0,0-.38-1.136A2.529,2.529,0,0,0,564.336,580.367Z" transform="translate(-511.274 -553.665)"/><path class="a" d="M613.406,580.392l-.718-.246a2.516,2.516,0,0,1-.932-.5,1.02,1.02,0,0,1-.3-.777,1.033,1.033,0,0,1,.4-.867,1.667,1.667,0,0,1,1.05-.308,3.2,3.2,0,0,1,.756.089,4.223,4.223,0,0,1,.831.313l.193-.66a3.723,3.723,0,0,0-.884-.3,4.689,4.689,0,0,0-.927-.09,2.346,2.346,0,0,0-1.64.52,1.809,1.809,0,0,0-.568,1.4,1.575,1.575,0,0,0,.418,1.147,2.652,2.652,0,0,0,1.093.655l.7.235a3.585,3.585,0,0,1,.654.285,1.692,1.692,0,0,1,.407.319.953.953,0,0,1,.209.363,1.449,1.449,0,0,1,.059.42,1.054,1.054,0,0,1-.434.928,1.86,1.86,0,0,1-1.088.3,3.835,3.835,0,0,1-.916-.106,3.928,3.928,0,0,1-.884-.341l-.2.66a4.308,4.308,0,0,0,1.023.347,5.248,5.248,0,0,0,1.023.1,2.893,2.893,0,0,0,.922-.14,2.181,2.181,0,0,0,.718-.392,1.734,1.734,0,0,0,.466-.615,1.959,1.959,0,0,0,.166-.822,1.822,1.822,0,0,0-.38-1.135A2.529,2.529,0,0,0,613.406,580.392Z" transform="translate(-549.851 -553.685)"/><path class="a" d="M644.551,578a2.06,2.06,0,0,0-.723-.4,2.961,2.961,0,0,0-.911-.134h-1.983v7.048h.772v-2.853h1.1a3.192,3.192,0,0,0,.948-.134,2.149,2.149,0,0,0,.75-.4,1.845,1.845,0,0,0,.5-.66,2.191,2.191,0,0,0,.182-.923,2.267,2.267,0,0,0-.166-.9A1.767,1.767,0,0,0,644.551,578Zm-.316,2.265a1.107,1.107,0,0,1-.386.442,1.626,1.626,0,0,1-.6.229,4.126,4.126,0,0,1-.772.067h-.772v-2.886h1.007a2.783,2.783,0,0,1,.611.067,1.411,1.411,0,0,1,.531.235,1.259,1.259,0,0,1,.375.448,1.5,1.5,0,0,1,.145.694A1.578,1.578,0,0,1,644.235,580.264Z" transform="translate(-573.649 -554.015)"/><path class="a" d="M665.594,577.467l-2.658,7.048h.8l.739-2.014h2.894l.74,2.014h.814l-2.615-7.048Zm1.543,4.385h-2.444l.557-1.51q.1-.246.177-.476t.161-.464c.054-.157.109-.321.166-.492s.114-.354.172-.548h.021q.182.593.348,1.091t.305.889Z" transform="translate(-590.946 -554.015)"/><path class="a" d="M697.9,578.4a2.1,2.1,0,0,1,.8-.526,2.753,2.753,0,0,1,.959-.168,3.232,3.232,0,0,1,.8.089,3.616,3.616,0,0,1,.723.28l.182-.626a3.38,3.38,0,0,0-.772-.3,4.368,4.368,0,0,0-1.05-.106,3.373,3.373,0,0,0-1.286.241,2.876,2.876,0,0,0-1.024.7,3.237,3.237,0,0,0-.675,1.141,4.566,4.566,0,0,0-.241,1.538,4.405,4.405,0,0,0,.252,1.555,3.306,3.306,0,0,0,.686,1.13,2.847,2.847,0,0,0,1.018.694,3.312,3.312,0,0,0,1.249.235,4.821,4.821,0,0,0,1.034-.095,3.336,3.336,0,0,0,.777-.274l-.182-.649a3.842,3.842,0,0,1-.659.257,3.2,3.2,0,0,1-.874.1,2.735,2.735,0,0,1-.916-.156,2.107,2.107,0,0,1-.793-.5,2.482,2.482,0,0,1-.557-.906,4.582,4.582,0,0,1,0-2.735A2.638,2.638,0,0,1,697.9,578.4Z" transform="translate(-617.188 -553.685)"/><path class="a" d="M730.116,581.2h2.915v-.66h-2.915v-2.417h3.194v-.66h-3.965v7.048h4v-.66h-3.226Z" transform="translate(-643.154 -554.014)"/><path class="a" d="M344.942,476.337a15.123,15.123,0,0,1,2.278.133v-1.5a15.322,15.322,0,0,1-2.278.133H338.15v-2.456h5.243a15.369,15.369,0,0,1,2.256.133v-1.5a15.384,15.384,0,0,1-2.256.133H338.15v-.4a12.3,12.3,0,0,1,.133-1.969h-1.7a13.025,13.025,0,0,1,.133,1.947v.42h-4.933a15.387,15.387,0,0,1-2.257-.133v1.5a15.8,15.8,0,0,1,2.257-.133h4.933V475.1h-6.393a15.745,15.745,0,0,1-2.279-.133v1.5a16.624,16.624,0,0,1,2.279-.133Z" transform="translate(-327.664 -468.771)"/><path class="a" d="M335.33,512.706V514.7a15.269,15.269,0,0,1-.155,2.257h1.748a14.063,14.063,0,0,1-.155-2.257v-1.991h7.212a15.647,15.647,0,0,1,2.256.133v-1.5a15.333,15.333,0,0,1-2.234.133h-7.234v-2.478h5.442a15.545,15.545,0,0,1,2.279.133v-1.5a15.952,15.952,0,0,1-2.279.133h-2.566a22.881,22.881,0,0,0,1.748-3.141l-1.35-.4a17.07,17.07,0,0,1-1.814,3.54h-7.7a16.168,16.168,0,0,1-2.279-.133v1.5a17.089,17.089,0,0,1,2.279-.133h4.8v2.478h-6.792a15.668,15.668,0,0,1-2.256-.133v1.5a16.3,16.3,0,0,1,2.256-.133Z" transform="translate(-326.282 -496.424)"/><path class="a" d="M349.518,507.4l1.15-.642a11.889,11.889,0,0,0-1.637-2.854l-1.128.575A14.306,14.306,0,0,1,349.518,507.4Z" transform="translate(-343.28 -496.179)"/><path class="a" d="M484.171,527.453a16.59,16.59,0,0,1-.133-2.279v-5.287a17.314,17.314,0,0,1,.089-2.123,16.479,16.479,0,0,1-2.146.088h-7.5c-.973,0-1.659-.022-2.19-.066a17.79,17.79,0,0,1,.089,2.124v5.221a16.162,16.162,0,0,1-.133,2.234h1.438v-1.018h9.026v1.106ZM478.662,519h4.049v2.389h-4.049ZM477.4,525.2h-3.717V522.52H477.4Zm0-3.805h-3.717V519H477.4Zm1.261,3.805V522.52h4.049V525.2Z" transform="translate(-441.034 -507.079)"/><path class="a" d="M481.137,474.443a19.182,19.182,0,0,1,2.1.111v-1.482a19.1,19.1,0,0,1-2.19.111h-8.163a20.946,20.946,0,0,1-2.19-.111v1.482a19.819,19.819,0,0,1,2.1-.111Z" transform="translate(-439.814 -471.943)"/><path class="a" d="M439.4,493.253a20.57,20.57,0,0,1,2.035,2.411l.863-1.106a13.7,13.7,0,0,0-1.947-1.836c-.42-.332-.464-.376-.8-.642a18.7,18.7,0,0,0,2.411-3.938,6.117,6.117,0,0,1,.442-.863l-.642-.84a4.963,4.963,0,0,1-1.04.066h-3.894a13.673,13.673,0,0,1-1.659-.088v1.438a15.134,15.134,0,0,1,1.7-.089h3.849a16.477,16.477,0,0,1-2.411,3.894,17.468,17.468,0,0,1-3.938,3.539,3.633,3.633,0,0,1,.8,1.217,22.452,22.452,0,0,0,2.876-2.61v6.725c0,.841-.044,1.637-.111,2.323h1.571a18.07,18.07,0,0,1-.111-2.323Z" transform="translate(-411.267 -482.435)"/><path class="a" d="M449.88,471.158a16.664,16.664,0,0,0-2.146-3.053l-1.04.619a14.655,14.655,0,0,1,2.013,3.164Z" transform="translate(-420.945 -468.039)"/><path class="a" d="M486.8,486.727a17.334,17.334,0,0,1-2.035.111h-5.575a13.818,13.818,0,0,1-2.079-.111,14.783,14.783,0,0,1,.089,1.836V490a13.96,13.96,0,0,1-.089,1.814,18.4,18.4,0,0,1,2.1-.089H484.7a17.2,17.2,0,0,1,2.1.089,13.8,13.8,0,0,1-.089-1.858v-1.416A13.7,13.7,0,0,1,486.8,486.727Zm-1.416,3.871H478.5v-2.61h6.88Z" transform="translate(-444.856 -482.679)"/><path class="a" d="M560.567,528.951V523.4h4.513a15.99,15.99,0,0,1,2.234.133v-1.526a16.345,16.345,0,0,1-2.3.133H554.7a10.723,10.723,0,0,1-2.124-.133v1.526a11.485,11.485,0,0,1,2.19-.133h4.358v5.552H552.8a17.671,17.671,0,0,1-2.456-.133v1.57a16.434,16.434,0,0,1,2.456-.155h14.335a16.106,16.106,0,0,1,2.389.155v-1.57a16.831,16.831,0,0,1-2.389.133Z" transform="translate(-502.432 -510.413)"/><path class="a" d="M552.623,475.029h1.482v-3.075h15.287v2.92h1.482a8.5,8.5,0,0,1-.111-1.549v-1.217a9.919,9.919,0,0,1,.089-1.526,18.659,18.659,0,0,1-2.235.111h-6.039a21.953,21.953,0,0,0-1.748-2.9l-1.15.553a13.758,13.758,0,0,1,1.416,2.345h-6.216a18.653,18.653,0,0,1-2.234-.111,10.33,10.33,0,0,1,.089,1.526v1.172A11.08,11.08,0,0,1,552.623,475.029Z" transform="translate(-504.223 -467.795)"/><path class="a" d="M552.606,499.152a17.626,17.626,0,0,0,3.982-2.367,13.349,13.349,0,0,0,2.588-2.721l-1.239-.509a11.462,11.462,0,0,1-2.411,2.367,16.5,16.5,0,0,1-3.938,2.013A2.972,2.972,0,0,1,552.606,499.152Z" transform="translate(-503.409 -488.046)"/><path class="a" d="M603.625,494.418a47.579,47.579,0,0,1,6.3,4.8l1.084-1.04a50.459,50.459,0,0,0-6.5-4.624Z" transform="translate(-544.318 -488.046)"/><path class="a" d="M663.621,490.3h1.637a15.97,15.97,0,0,1-.133-2.478v-10.4h4.048c.885,0,1.637.022,2.234.066-.044-.553-.067-1.172-.067-2.057V472.69c0-.819.022-1.482.067-2.1a19.381,19.381,0,0,1-2.256.089h-3.164a20.443,20.443,0,0,1-2.323-.089c.066.708.089,1.35.089,2.434v14.8A16.527,16.527,0,0,1,663.621,490.3Zm1.5-18.539h4.955v1.77h-4.955Zm0,2.809h4.955v1.792h-4.955Z" transform="translate(-591.485 -469.991)"/><path class="a" d="M717.673,488.153V473.022a20.986,20.986,0,0,1,.11-2.434,20.441,20.441,0,0,1-2.323.089h-3.65a19.142,19.142,0,0,1-2.257-.089c.044.664.066,1.328.066,2.1v2.743c0,.819-.022,1.482-.066,2.057.6-.044,1.305-.066,2.235-.066h4.535v10.641c0,.531-.155.62-1.062.62a23.32,23.32,0,0,1-2.456-.2,5.071,5.071,0,0,1,.4,1.416c.619.044,1.659.066,2.19.066C717.231,489.967,717.673,489.613,717.673,488.153Zm-6.792-16.393h5.442v1.77h-5.442Zm0,4.6V474.57h5.442v1.792Z" transform="translate(-627.596 -469.991)"/><path class="a" d="M694.211,519.52c-.044-.575-.066-1.354-.066-2.2v-3.5c0-.885.022-1.681.066-2.3a19.624,19.624,0,0,1-2.19.088h-4.026a20.061,20.061,0,0,1-2.212-.088c.044.642.066,1.526.066,2.3v3.739a16.689,16.689,0,0,1-.089,1.974,16.719,16.719,0,0,1,1.969-.088h4.225C692.884,519.454,693.591,519.476,694.211,519.52Zm-7.079-6.841h5.752v2.19h-5.752Zm0,5.624v-2.328h5.752V518.3Z" transform="translate(-608.89 -502.177)"/></g><g transform="translate(31 12.203)"><path class="a" d="M141.3,463.312l-9.019-7.2-1.062,1.329,8.687,6.854.281.22a1.843,1.843,0,0,1,.705,1.45v7.462a1.693,1.693,0,0,1-1.7,1.693l-32.986-.14a1.693,1.693,0,0,1-1.686-1.693V458.219a3.385,3.385,0,0,1,1.254-2.63l15.865-12.854a1.693,1.693,0,0,1,2.136,0l17.183,14.026,1.071-1.292-16.4-13.605s-2.327-2.924-5.85,0l-14.2,11.786-1.5,1.247a4.483,4.483,0,0,0-1.378,3.744V474.2a2.867,2.867,0,0,0,2.741,2.742l34.05.039a2.908,2.908,0,0,0,3.223-2.781v-7.946A3.47,3.47,0,0,0,141.3,463.312Z" transform="translate(-102.676 -436.869)"/><path class="a" d="M246.676,433.3h1.572V423.271h-1.572V427.5h-3.6v1.574h3.6Z" transform="translate(-213.051 -423.271)"/><rect class="a" width="3.196" height="1.574" transform="translate(36.856 4.228)"/></g></g></svg>